PathFileType	4	(X/Y/Z)	pose_F01_0-70.trc
DataRate	CameraRate	NumFrames	NumMarkers	Units	OrigDataRate	OrigDataStartFrame	OrigNumFrames
30	30	9	21	m	30	52	70
Frame#	Time	CHip			RHip			RKnee			RAnkle			RBigToe			RSmallToe			RHeel			LHip			LKnee			LAnkle			LBigToe			LSmallToe			LHeel			Neck			Nose			RShoulder			RElbow			RWrist			LShoulder			LElbow			LWrist			
		X1	Y1	Z1	X2	Y2	Z2	X3	Y3	Z3	X4	Y4	Z4	X5	Y5	Z5	X6	Y6	Z6	X7	Y7	Z7	X8	Y8	Z8	X9	Y9	Z9	X10	Y10	Z10	X11	Y11	Z11	X12	Y12	Z12	X13	Y13	Z13	X14	Y14	Z14	X15	Y15	Z15	X16	Y16	Z16	X17	Y17	Z17	X18	Y18	Z18	X19	Y19	Z19	X20	Y20	Z20	X21	Y21	Z21	
52	1.7333333333333334	-0.20634270318830078	1.8371526335362436	-0.7273166888789998	-0.22368981716003633	1.833641507397963	-0.6560586581639812																-0.18424578198955474	1.840882673270624	-0.7976298393940948	-0.19239065364204083	1.7009806855828211	-0.7963101606134313													-0.20593581861013907	1.998372785661184	-0.7464901113823317	-0.18988516827876747	2.066447819694835	-0.7141958322257175	-0.23583131622140333	1.9913729738123855	-0.6510507005321956	-0.2457531494106038	1.9110108461936528	-0.6106885086516425	-1.361201158214725	1.8489972415916645	0.5299048018338048	-0.17829665795131566	2.0044291254776514	-0.839579430040686	-1.0080007564516016	1.8212673457543087	-0.051224239276444886	-1.1900642236859096	1.834484637530997	0.2729082990883274
53	1.7666666666666666	-0.20095700334596125	1.8362419447708862	-0.7405750851804077	-0.21937458588500805	1.8341089526629042	-0.6723873804616918																-0.18196414834928823	1.8418300213440493	-0.8115103620518884	-0.19007750572291718	1.7002194489636793	-0.8097162800166908													-0.20376212133488614	1.9982599050962044	-0.7597930182432504	-0.19015880874696517	2.0659216315805717	-0.7256799233827955	-0.2311891708272823	1.9916280889216684	-0.6641044464232545	-0.24232821376419503	1.9111504202822074	-0.6267916860598809	-1.3584176942229442	1.848020060475797	0.5217970511716159	-0.17348708054978082	2.003626851537196	-0.8552013373405584	-0.9858463602607958	1.8214983041203094	-0.08696833122976236	-1.1536418971199311	1.8326674726392407	0.2142320422234978
54	1.8	-0.19937777331254813	1.8353057015117555	-0.7460415147533022	-0.21815282634938554	1.8321420041496792	-0.6776399175513612																-0.1810891375155383	1.8407199935453138	-0.8199662960168176	-0.1908967609809561	1.6981150361523827	-0.8127256080506648													-0.20016315937568593	1.9982809030689297	-0.7675153645278805	-0.18834870483662156	2.0646194788063923	-0.7393413124208509	-0.22772389070656623	1.9912968945677416	-0.6714264087033806	-0.24283964833785748	1.9176777009661963	-0.6381476403065587	-1.3361993543047752	1.8420136776850697	0.4908361763926971	-0.16800449144291318	2.0055788815024616	-0.8683001831156758	-0.9615005608662766	1.819964275298215	-0.12503961518478296	-1.1392729331375946	1.8328583733993777	0.18950527943342557
55	1.8333333333333333	-0.1968380115322998	1.835235905537565	-0.7566247147268974	-0.21695879051036013	1.833374970896449	-0.683341786558184																-0.1796786833355861	1.8381963405848447	-0.8252958445756997	-0.1887862366178056	1.6988879252397218	-0.8149493000608561													-0.19715888114138985	1.9976006349871578	-0.7778051867628558	-0.18475406906222683	2.064751315340786	-0.7469259318116082	-0.22634095178700897	1.9906118267212523	-0.6764130625429023	-0.24069929595129627	1.9080738278703981	-0.6408395733122978	-1.3204862888709792	1.8384096490774269	0.46589643279518395	-0.1671361378704182	2.0031707293303516	-0.8764660932682911	-0.9447036595994366	1.8206390831555264	-0.14575888158359043	-1.1190870628669718	1.8306190128186233	0.15868750476572918
56	1.8666666666666667	-0.19440616296590074	1.8368494919393956	-0.7593185882522338	-0.21629107092533117	1.8344487301974524	-0.692039023001345																-0.17731076923392478	1.8373078873447	-0.8277402215610814	-0.18858581811491248	1.7013762621507649	-0.8152902456782164													-0.19444761529284305	1.9975143973252192	-0.7888200150220097	-0.18337620970088506	2.0638956308003062	-0.7523421580030463	-0.22682618701593268	1.99183458022797	-0.6883540186728991	-0.23718969607323231	1.9068353483259837	-0.6482663911389465	-1.3183628096676763	1.8409608010596787	0.4602179648064794	-0.16323649594740944	2.003398745201685	-0.8839923046876514	-0.9275524957920555	1.8199565677721405	-0.16773639946147825	-1.1214657515006266	1.8324807478886749	0.16139668999034734
57	1.9	-0.19474563918382962	1.8343643820539688	-0.758938390913472	-0.21466853052340545	1.8330606867516024	-0.6939419985581151																-0.1752480713667609	1.8364898856055762	-0.8297475681867574	-0.18855981988718196	1.69824030161715	-0.8150790327580075													-0.19214938066449272	1.9977230515663587	-0.7911414783155687	-0.18116365862696573	2.064156157371239	-0.7547830836802106	-0.22251786719485012	1.9919726846204198	-0.6928483318041154	-0.2360054876922809	1.9148215730323088	-0.6536919257712085	-1.3186749490179988	1.8418975294828501	0.4598402028950822	-0.16079763404088276	2.0035271206776306	-0.8863629757563399	-0.923211805979958	1.8218090210458988	-0.17290527102158484	-1.118737548871117	1.8302693758005761	0.15853251157277096
58	1.9333333333333333	-0.195555944260796	1.8346807657168416	-0.7619314696335182	-0.21439394107023232	1.8333469531284983	-0.694056852159247																-0.17511059061061568	1.8355410998733643	-0.829790328494017	-0.18839703093063717	1.6978583183988618	-0.8138907366015455													-0.19289732031566054	1.9977512756925815	-0.7941154067201123	-0.18192389783886165	2.062857080825076	-0.757256976135076	-0.2233797950559802	1.9919035934718632	-0.6959237296855355	-0.2368236498845812	1.9170261341415038	-0.6564479369252323	-1.3160319929619468	1.8424615958394726	0.45496173679467816	-0.1608992760509223	2.002138878749647	-0.8865032988442569	-0.9276731596543976	1.8172387980785658	-0.16279604761037889	-1.1362273268871663	1.8325134619103245	0.18671243259026563
59	1.9666666666666666	-0.1945996691427083	1.8330635268100228	-0.7588550638041012	-0.21646242806867422	1.8332928605492078	-0.6919230897207345																-0.1750454639059829	1.8352524989489114	-0.8296726382960483	-0.1882342419740924	1.6974763351805737	-0.8127024404450837													-0.19283025958238148	1.997761686745782	-0.7942421088694022	-0.18190372021954823	2.0627809796430445	-0.7573002385204161	-0.222108214181986	1.99332719578227	-0.7015741374755013	-1.3321689659797107	1.829330488072085	0.4402335863299313	-1.3180000835861354	1.84083396391342	0.4596005973853066	-0.15841851200302018	2.003531296378507	-0.8886575221041281	-0.9423087762733919	1.8185689320303107	-0.13870349595549028	-1.15079073927738	1.8326969723730138	0.21154166401844435
60	2.0	-0.19481048261565165	1.8316282077066497	-0.7584684541348035	-0.2158652057315345	1.8323000384936388	-0.6885939091977913																-0.17676760850877263	1.8338026280741766	-0.8241566991359485	-0.1880714530175476	1.6970943519622856	-0.8115141442886217													-0.19067348439189696	1.9978149514701313	-0.7963972275012906	-0.18113313796412212	2.0627677260409714	-0.7543831418287438	-0.2221120775901361	1.9933204084480747	-0.70159418143558	-0.23473955424971393	1.9195548235847602	-0.6587326290592427	-1.3283471973251444	1.8406875121568997	0.478039166682028	-0.15624077695802094	2.0021626342521164	-0.8909946500524947	-0.9360097952875193	1.8175222157011257	-0.14559407491036402	-1.1503871699708832	1.8318450895485132	0.21148590968057437
